0
SECTION
2
HEADER
9
$INSUNITS
70
4
9
$ACADVER
1
AC1014
9
$HANDSEED
5
FFFF
0
ENDSEC
0
SECTION
2
TABLES
0
TABLE
2
VPORT
5
8
100
AcDbSymbolTable
0
ENDTAB
0
TABLE
2
LTYPE
5
5
100
AcDbSymbolTable
0
LTYPE
5
14
100
AcDbSymbolTableRecord
100
AcDbLinetypeTableRecord
2
BYBLOCK
70
0
0
LTYPE
5
15
100
AcDbSymbolTableRecord
100
AcDbLinetypeTableRecord
2
BYLAYER
70
0
0
ENDTAB
0
TABLE
2
LAYER
5
2
100
AcDbSymbolTable
70
2
0
LAYER
5
50
100
AcDbSymbolTableRecord
100
AcDbLayerTableRecord
2
0
70
0
6
CONTINUOUS
0
ENDTAB
0
TABLE
2
STYLE
5
3
100
AcDbSymbolTable
70
1
0
STYLE
5
11
100
AcDbSymbolTableRecord
100
AcDbTextStyleTableRecord
2
STANDARD
70
0
0
ENDTAB
0
TABLE
2
VIEW
5
6
100
AcDbSymbolTable
70
0
0
ENDTAB
0
TABLE
2
UCS
5
7
100
AcDbSymbolTable
70
0
0
ENDTAB
0
TABLE
2
APPID
5
9
100
AcDbSymbolTable
70
2
0
APPID
5
12
100
AcDbSymbolTableRecord
100
AcDbRegAppTableRecord
2
ACAD
70
0
0
ENDTAB
0
TABLE
2
DIMSTYLE
5
A
100
AcDbSymbolTable
70
1
0
ENDTAB
0
TABLE
2
BLOCK_RECORD
5
1
100
AcDbSymbolTable
70
1
0
BLOCK_RECORD
5
1F
100
AcDbSymbolTableRecord
100
AcDbBlockTableRecord
2
*MODEL_SPACE
0
BLOCK_RECORD
5
1B
100
AcDbSymbolTableRecord
100
AcDbBlockTableRecord
2
*PAPER_SPACE
0
ENDTAB
0
ENDSEC
0
SECTION
2
BLOCKS
0
BLOCK
5
20
100
AcDbEntity
100
AcDbBlockBegin
2
*MODEL_SPACE
0
ENDBLK
5
21
100
AcDbEntity
100
AcDbBlockEnd
0
BLOCK
5
1C
100
AcDbEntity
100
AcDbBlockBegin
2
*PAPER_SPACE
0
ENDBLK
5
1D
100
AcDbEntity
100
AcDbBlockEnd
0
ENDSEC
0
SECTION
2
ENTITIES
0
LWPOLYLINE
5
100
100
AcDbEntity
8
0
100
AcDbPolyline
90
72
70
1
43
0.0
10
-126.77354536769903
20
156.67959405577994
42
0.41421356237309503
10
-128.77354536769903
20
154.67959404747285
10
-128.77354536769903
20
63.429593668461457
42
0.41421356237309631
10
-126.77354536769903
20
61.429593660154353
10
-110.87354536769905
20
61.429593655170081
42
-0.41421356237309287
10
-109.67354536769903
20
60.229593655170099
10
-109.67354536769903
20
58.429593647693594
42
0.99999999999999989
10
-104.67354536769903
20
58.429593647693594
10
-104.67354537268328
20
60.229593655170092
42
-0.41421356237309503
10
-103.47354536769902
20
61.429593660154353
10
-46.748545367699009
20
61.429593655170088
42
-0.41421356237309287
10
-45.548545367699013
20
60.229593655170099
10
-45.548545367699013
20
58.42959364769299
42
0.99999999999999989
10
-40.548545367699013
20
58.42959364769299
10
-40.548545372683279
20
60.229593655170092
42
-0.41421356237309503
10
-39.348545367699018
20
61.429593660154353
10
-1.9485453676989704
20
61.429593660154325
42
0.41421356237309781
10
-0.94854536769896092
20
62.429593664307845
10
-0.94854537185250787
20
77.45459372671489
42
-0.41421356237309498
10
0.051454632301045806
20
78.454593730868439
10
1.0514546323010494
20
78.454593726714876
42
-0.41421356237309503
10
2.0514546323010494
20
77.45459372671489
10
2.0514546323010494
20
62.429593664307845
42
0.41421356237309503
10
3.0514546323010494
20
61.429593660154289
10
25.151454632301096
20
61.429593660154325
42
0.4142135623730937
10
26.151454632301096
20
62.429593664307845
10
26.151454628147537
20
77.45459372671489
42
-0.41421356237309503
10
27.151454632301089
20
78.454593730868439
10
28.151454632301093
20
78.454593726714876
42
-0.41421356237309503
10
29.151454632301093
20
77.45459372671489
10
29.151454632301093
20
62.429593664307845
42
0.41421356237309503
10
30.151454632301093
20
61.429593660154289
10
67.551454632300988
20
61.429593655170088
42
-0.4142135623731189
10
68.751454632301105
20
60.229593655170099
10
68.751454632301005
20
58.42959364769299
42
0.99999999999999989
10
73.751454632301005
20
58.42959364769299
10
73.751454627316818
20
60.229593655170092
42
-0.41421356237309503
10
74.951454632301079
20
61.429593660154353
10
131.67645463230099
20
61.429593655170081
42
-0.41421356237309287
10
132.87645463230098
20
60.229593655170099
10
132.87645463230098
20
58.429593647693594
42
0.99999999999999989
10
137.87645463230098
20
58.429593647693594
10
137.87645462731672
20
60.229593655170092
42
-0.41421356237309503
10
139.07645463230099
20
61.429593660154353
10
154.97645463230097
20
61.429593660154325
42
0.41421356237309503
10
156.97645463230097
20
63.42959366846145
10
156.976454632301
20
154.67959404747293
42
0.41421356237309503
10
154.97645463230097
20
156.67959405578006
10
154.15145463230101
20
156.67959406076432
42
-0.41421356237309503
10
152.95145463230102
20
157.8795940607643
10
152.95145463230097
20
159.67959406824053
42
0.99999999999999989
10
147.95145463230097
20
159.67959406824053
10
147.95145463728528
20
157.8795940607643
42
-0.41421356237309503
10
146.75145463230101
20
156.67959405578006
10
74.951454632301079
20
156.67959406076432
42
-0.41421356237309936
10
73.75145463230109
20
157.87959406076433
10
73.751454632301105
20
159.67959406824053
42
0.99999999999999989
10
68.751454632301105
20
159.67959406824053
10
68.751454637285377
20
157.87959406076422
42
-0.41421356237309503
10
67.551454632300988
20
156.67959405578006
10
-39.348545367699018
20
156.67959406076432
42
-0.41421356237306795
10
-40.548545367699013
20
157.87959406076422
10
-40.548545367699013
20
159.67959406824042
42
0.99999999999999989
10
-45.548545367699013
20
159.67959406824042
10
-45.548545362714741
20
157.87959406076422
42
-0.41421356237309503
10
-46.748545367699009
20
156.67959405577994
10
-118.54854536769903
20
156.67959406076423
42
-0.41421356237309503
10
-119.74854536769902
20
157.87959406076422
10
-119.74854536769902
20
159.67959406824042
42
0.99999999999999989
10
-124.74854536769902
20
159.67959406824042
10
-124.74854536271476
20
157.87959406076422
42
-0.41421356237309503
10
-125.94854536769903
20
156.67959405577994
0
LWPOLYLINE
5
101
100
AcDbEntity
8
0
100
AcDbPolyline
90
8
70
1
43
0.0
10
21.101454632300992
20
77.45459372671499
10
21.101454634377774
20
64.454593672718829
42
-0.41421356237309503
10
20.601454632300992
20
63.954593670642055
10
7.6014546323010386
20
63.954593672718829
42
-0.41421356237309503
10
7.1014546323010315
20
64.454593672718829
10
7.101454630224266
20
77.45459372671499
42
-0.41421356237309503
10
7.6014546323010386
20
77.954593728791764
10
20.601454632300992
20
77.954593726715004
42
-0.41421356237309503
0
LWPOLYLINE
5
102
100
AcDbEntity
8
0
100
AcDbPolyline
90
8
70
1
43
0.0
10
-26.236045367699006
20
83.504593751843998
10
-26.236045369775773
20
96.504593805840074
42
-0.41421356237309503
10
-25.73604536769901
20
97.004593807916834
10
-12.736045367699013
20
97.004593805840074
42
-0.41421356237309503
10
-12.236045367699006
20
96.504593805840074
10
-12.236045365622232
20
83.504593751843998
42
-0.41421356237309503
10
-12.736045367699013
20
83.004593749767224
10
-25.73604536769901
20
83.004593751843998
42
-0.41421356237309503
0
LWPOLYLINE
5
103
100
AcDbEntity
8
0
100
AcDbPolyline
90
8
70
1
43
0.0
10
112.37645463230101
20
77.954593728791764
42
0.41421356237309503
10
111.87645463230101
20
77.45459372671499
10
111.87645463230099
20
64.454593672718829
42
0.41421356237309503
10
112.37645463230101
20
63.954593670642019
10
125.37645463230099
20
63.954593670642055
42
0.41421356237309503
10
125.87645463230101
20
64.454593672718829
10
125.87645463230101
20
77.45459372671499
42
0.41421356237309503
10
125.37645463230099
20
77.954593728791792
0
LWPOLYLINE
5
104
100
AcDbEntity
8
0
100
AcDbPolyline
90
8
70
1
43
0.0
10
-63.836045367699015
20
97.004593807916834
42
0.41421356237309503
10
-64.336045367699015
20
96.504593805840074
10
-64.336045367699015
20
83.504593751843998
42
0.41421356237309503
10
-63.836045367699015
20
83.004593749767182
10
-50.836045367699015
20
83.004593749767224
42
0.41421356237309503
10
-50.336045367699008
20
83.504593751843998
10
-50.336045367699015
20
96.504593805840074
42
0.41421356237309503
10
-50.836045367699015
20
97.004593807916862
0
LWPOLYLINE
5
105
100
AcDbEntity
8
0
100
AcDbPolyline
90
8
70
1
43
0.0
10
25.863954632301002
20
96.504593805840074
42
0.41421356237309503
10
25.363954632300995
20
97.004593807916848
10
12.363954632300992
20
97.004593807916834
42
0.41421356237309503
10
11.86395463230099
20
96.504593805840074
10
11.863954632300985
20
83.504593751843998
42
0.41421356237309503
10
12.363954632300992
20
83.004593749767182
10
25.363954632300995
20
83.004593749767224
42
0.41421356237309503
10
25.863954632300992
20
83.504593751843998
0
LWPOLYLINE
5
106
100
AcDbEntity
8
0
100
AcDbPolyline
90
8
70
1
43
0.0
10
-44.78604536769901
20
97.004593807916834
42
0.41421356237309503
10
-45.28604536769901
20
96.504593805840074
10
-45.286045367699018
20
83.504593751843998
42
0.41421356237309503
10
-44.78604536769901
20
83.004593749767182
10
-31.78604536769901
20
83.004593749767224
42
0.41421356237309503
10
-31.28604536769901
20
83.504593751843998
10
-31.286045367699003
20
96.504593805840074
42
0.41421356237309503
10
-31.78604536769901
20
97.004593807916862
0
LWPOLYLINE
5
107
100
AcDbEntity
8
0
100
AcDbPolyline
90
42
70
1
43
0.0
10
143.98320463230101
20
100.55459382266199
10
143.98320463230101
20
103.14159383340723
10
142.54520463230099
20
103.14159383340723
10
142.54520463437777
20
102.55459383096907
42
-0.41421356237309503
10
142.04520463230099
20
102.05459382889229
10
127.10720463230101
20
102.05459382889231
10
127.10720463437778
20
100.55459382266199
42
-0.41421356237309503
10
126.60720463230099
20
100.0545938205852
10
120.60720463230099
20
100.05459382266197
42
-0.41421356237309503
10
120.10720463230099
20
100.55459382266199
10
120.10720463230099
20
102.05459382889231
10
117.13895463230099
20
102.05459383096907
42
-0.41421356237309503
10
116.63895463230098
20
102.55459383096907
10
116.63895463022422
20
115.55459388496524
42
-0.41421356237309503
10
117.13895463230099
20
116.05459388704202
10
138.070204632301
20
116.05459388704202
10
138.070204632301
20
121.10459390801743
10
136.18895463230101
20
121.10459391009422
42
-0.41421356237309503
10
135.68895463230098
20
121.60459391009424
10
135.6889546302242
20
134.60459396409038
42
-0.41421356237309503
10
136.18895463230101
20
135.10459396616716
10
149.18895463230098
20
135.10459396409038
42
-0.41421356237309503
10
149.68895463230101
20
134.60459396409038
10
149.68895463230101
20
134.01759396165218
10
150.570204632301
20
134.01759395957549
42
-0.41421356237309503
10
151.070204632301
20
133.51759395957546
10
151.07020463437775
20
127.51759393465419
42
-0.41421356237309503
10
150.570204632301
20
127.01759393257743
10
149.68895463230101
20
127.01759393257738
10
149.68895463230101
20
125.57959392660463
10
151.570204632301
20
125.57959392452781
42
-0.41421356237309503
10
152.070204632301
20
125.07959392452781
10
152.07020463437777
20
112.07959387053165
42
-0.41421356237309503
10
151.570204632301
20
111.57959386845488
10
150.98320463230101
20
111.57959386845489
10
150.98320463175597
20
109.92342891934969
42
-0.15083409163625366
10
151.070204632301
20
109.64159386040528
10
151.07020463296084
20
103.64159383548399
42
-0.15083409163624367
10
150.98320463230098
20
103.35975877616767
10
150.98320463437778
20
100.55459382266199
42
-0.41421356237309503
10
150.48320463230101
20
100.0545938205852
10
144.48320463230101
20
100.05459382266197
42
-0.41421356237309503
0
LWPOLYLINE
5
108
100
AcDbEntity
8
0
100
AcDbPolyline
90
8
70
1
43
0.0
10
74.251454632301105
20
64.954593674795561
42
0.41421356237309503
10
74.751454632301105
20
65.454593676872335
10
74.751454632301105
20
79.454593735022115
42
0.41421356237309503
10
74.251454632301105
20
79.954593737098818
10
68.251454632300991
20
79.95459373709889
42
0.41421356237309503
10
67.751454632301005
20
79.454593735022115
10
67.751454632300991
20
65.454593676872335
42
0.41421356237309503
10
68.251454632300991
20
64.954593674795532
0
LWPOLYLINE
5
109
100
AcDbEntity
8
0
100
AcDbPolyline
90
8
70
1
43
0.0
10
-73.36104536769902
20
77.954593728791764
42
0.41421356237309503
10
-73.86104536769902
20
77.45459372671499
10
-73.86104536769902
20
64.454593672718829
42
0.41421356237309503
10
-73.36104536769902
20
63.954593670642019
10
-60.361045367699013
20
63.954593670642055
42
0.41421356237309503
10
-59.861045367699013
20
64.454593672718829
10
-59.861045367699013
20
77.45459372671499
42
0.41421356237309503
10
-60.361045367699013
20
77.954593728791792
0
LWPOLYLINE
5
110
100
AcDbEntity
8
0
100
AcDbPolyline
90
8
70
1
43
0.0
10
50.463954632301096
20
97.004593807916834
42
0.41421356237309503
10
49.963954632301096
20
96.504593805840074
10
49.963954632301089
20
83.504593751843998
42
0.41421356237309503
10
50.463954632301096
20
83.004593749767182
10
63.463954632301096
20
83.004593749767224
42
0.41421356237309503
10
63.963954632301096
20
83.504593751843998
10
63.963954632301103
20
96.504593805840074
42
0.41421356237309503
10
63.463954632301096
20
97.004593807916862
0
LWPOLYLINE
5
111
100
AcDbEntity
8
0
100
AcDbPolyline
90
8
70
1
43
0.0
10
-97.173545367699035
20
77.954593728791764
42
0.41421356237309503
10
-97.67354536769902
20
77.45459372671499
10
-97.67354536769902
20
64.454593672718829
42
0.41421356237309503
10
-97.173545367699035
20
63.954593670642019
10
-84.173545367698921
20
63.954593670642055
42
0.41421356237309503
10
-83.673545367698935
20
64.454593672718829
10
-83.673545367698935
20
77.45459372671499
42
0.41421356237309503
10
-84.173545367698921
20
77.954593728791792
0
LWPOLYLINE
5
112
100
AcDbEntity
8
0
100
AcDbPolyline
90
8
70
1
43
0.0
10
31.413954632300992
20
97.004593807916834
42
0.41421356237309503
10
30.913954632300996
20
96.504593805840074
10
30.913954632300985
20
83.504593751843998
42
0.41421356237309503
10
31.413954632300992
20
83.004593749767182
10
44.413954632300999
20
83.004593749767224
42
0.41421356237309503
10
44.913954632301092
20
83.504593751843998
10
44.913954632300999
20
96.504593805840074
42
0.41421356237309503
10
44.413954632300999
20
97.004593807916862
0
LWPOLYLINE
5
113
100
AcDbEntity
8
0
100
AcDbPolyline
90
8
70
1
43
0.0
10
-6.686045367698962
20
97.004593807916834
42
0.41421356237309503
10
-7.1860453676989602
20
96.504593805840074
10
-7.1860453676989691
20
83.504593751843998
42
0.4142135623730957
10
-6.6860453676989611
20
83.004593749767182
10
6.3139546323010283
20
83.004593749767224
42
0.41421356237309503
10
6.8139546323010389
20
83.504593751843998
10
6.8139546323010354
20
96.504593805840074
42
0.4142135623730957
10
6.3139546323010274
20
97.004593807916862
0
LWPOLYLINE
5
114
100
AcDbEntity
8
0
100
AcDbPolyline
90
8
70
1
43
0.0
10
-82.886045367699026
20
97.004593807916834
42
0.41421356237309503
10
-83.386045367699012
20
96.504593805840074
10
-83.386045367699012
20
83.504593751843998
42
0.41421356237309503
10
-82.886045367699026
20
83.004593749767182
10
-69.886045367699012
20
83.004593749767224
42
0.41421356237309503
10
-69.386045367699012
20
83.504593751843998
10
-69.386045367699012
20
96.504593805840074
42
0.41421356237309503
10
-69.886045367699012
20
97.004593807916862
0
LWPOLYLINE
5
115
100
AcDbEntity
8
0
100
AcDbPolyline
90
20
70
1
43
0.0
10
-123.36729536769903
20
97.004593807916834
42
0.41421356237309503
10
-123.86729536769903
20
96.504593805840074
10
-123.86729536769904
20
83.504593751843998
42
0.41421356237309503
10
-123.36729536769903
20
83.004593749767182
10
-122.78029536769901
20
83.004593749767182
10
-122.78029536769904
20
81.504593743536873
42
0.41421356237309503
10
-122.28029536769903
20
81.004593741460056
10
-116.28029536769903
20
81.004593741460098
42
0.41421356237309503
10
-115.78029536769903
20
81.504593743536873
10
-115.78029536769903
20
83.004593749767182
10
-98.904295367699021
20
83.004593749767182
10
-98.904295367699021
20
81.504593743536873
42
0.41421356237309503
10
-98.404295367699035
20
81.004593741460056
10
-92.404295367699021
20
81.004593741460098
42
0.41421356237309503
10
-91.904295367699035
20
81.504593743536873
10
-91.904295367699035
20
83.004593749767182
10
-88.936045367699009
20
83.004593749767224
42
0.41421356237309503
10
-88.436045367699023
20
83.504593751843998
10
-88.436045367699009
20
96.504593805840074
42
0.41421356237309503
10
-88.936045367699009
20
97.004593807916862
0
LWPOLYLINE
5
116
100
AcDbEntity
8
0
100
AcDbPolyline
90
8
70
1
43
0.0
10
-92.411045367699032
20
116.05459388704202
42
0.41421356237309503
10
-92.911045367699018
20
115.55459388496524
10
-92.911045367699018
20
102.55459383096907
42
0.41421356237309503
10
-92.411045367699032
20
102.05459382889231
10
-79.411045367699018
20
102.05459382889229
42
0.41421356237309503
10
-78.911045367699018
20
102.55459383096907
10
-78.911045367699018
20
115.55459388496524
42
0.41421356237309503
10
-79.411045367699018
20
116.05459388704202
0
LWPOLYLINE
5
117
100
AcDbEntity
8
0
100
AcDbPolyline
90
8
70
1
43
0.0
10
-16.211045367699015
20
116.05459388704202
42
0.41421356237309503
10
-16.711045367699011
20
115.55459388496524
10
-16.711045367699022
20
102.55459383096907
42
0.4142135623730937
10
-16.211045367699015
20
102.05459382889229
10
-3.2110453676989708
20
102.05459382889229
42
0.41421356237309503
10
-2.7110453676989805
20
102.55459383096907
10
-2.7110453676989636
20
115.55459388496524
42
0.41421356237309437
10
-3.2110453676989703
20
116.05459388704202
0
LWPOLYLINE
5
118
100
AcDbEntity
8
0
100
AcDbPolyline
90
8
70
1
43
0.0
10
-35.261045367699005
20
116.05459388704202
42
0.41421356237309503
10
-35.761045367699005
20
115.55459388496524
10
-35.761045367699012
20
102.55459383096907
42
0.41421356237309503
10
-35.261045367699005
20
102.05459382889229
10
-22.261045367699012
20
102.05459382889229
42
0.41421356237309503
10
-21.761045367698912
20
102.55459383096907
10
-21.761045367699005
20
115.55459388496524
42
0.41421356237309503
10
-22.261045367699012
20
116.05459388704202
0
LWPOLYLINE
5
119
100
AcDbEntity
8
0
100
AcDbPolyline
90
8
70
1
43
0.0
10
79.038954632300985
20
116.05459388704202
42
0.41421356237309503
10
78.538954632300999
20
115.55459388496524
10
78.538954632300985
20
102.55459383096907
42
0.41421356237309503
10
79.038954632300985
20
102.05459382889231
10
92.038954632300985
20
102.05459382889229
42
0.41421356237309503
10
92.538954632301085
20
102.55459383096907
10
92.538954632300999
20
115.55459388496524
42
0.41421356237309503
10
92.038954632300985
20
116.05459388704202
0
LWPOLYLINE
5
120
100
AcDbEntity
8
0
100
AcDbPolyline
90
8
70
1
43
0.0
10
21.388954632300994
20
102.55459383096907
10
21.388954630224227
20
115.55459388496524
42
-0.41421356237309503
10
21.888954632300994
20
116.05459388704202
10
34.888954632300994
20
116.05459388496526
42
-0.41421356237309503
10
35.388954632301001
20
115.55459388496524
10
35.388954634377775
20
102.55459383096907
42
-0.41421356237309503
10
34.888954632300994
20
102.05459382889229
10
21.888954632300994
20
102.05459383096908
42
-0.41421356237309503
0
LWPOLYLINE
5
121
100
AcDbEntity
8
0
100
AcDbPolyline
90
8
70
1
43
0.0
10
98.088954632300997
20
116.05459388704202
42
0.41421356237309503
10
97.588954632301011
20
115.55459388496524
10
97.588954632300982
20
102.55459383096907
42
0.41421356237309503
10
98.088954632300997
20
102.05459382889231
10
111.08895463230098
20
102.05459382889229
42
0.41421356237309503
10
111.58895463230098
20
102.55459383096907
10
111.58895463230098
20
115.55459388496524
42
0.41421356237309503
10
111.08895463230098
20
116.05459388704202
0
LWPOLYLINE
5
122
100
AcDbEntity
8
0
100
AcDbPolyline
90
8
70
1
43
0.0
10
-105.10479536769904
20
115.55459388496524
42
0.41421356237309503
10
-105.60479536769903
20
116.05459388704202
10
-118.60479536769903
20
116.05459388704202
42
0.41421356237309503
10
-119.10479536769901
20
115.55459388496524
10
-119.10479536769904
20
102.55459383096907
42
0.41421356237309503
10
-118.60479536769903
20
102.05459382889231
10
-105.60479536769903
20
102.05459382889229
42
0.41421356237309503
10
-105.10479536769901
20
102.55459383096907
0
LWPOLYLINE
5
123
100
AcDbEntity
8
0
100
AcDbPolyline
90
8
70
1
43
0.0
10
59.988954632300995
20
116.05459388704202
42
0.41421356237309503
10
59.488954632301002
20
115.55459388496524
10
59.488954632300988
20
102.55459383096907
42
0.41421356237309503
10
59.988954632300995
20
102.05459382889229
10
72.988954632300988
20
102.05459382889229
42
0.41421356237309503
10
73.488954632300988
20
102.55459383096907
10
73.488954632301002
20
115.55459388496524
42
0.41421356237309503
10
72.988954632300988
20
116.05459388704202
0
LWPOLYLINE
5
124
100
AcDbEntity
8
0
100
AcDbPolyline
90
8
70
1
43
0.0
10
-54.311045367699016
20
116.05459388704202
42
0.41421356237309503
10
-54.811045367699016
20
115.55459388496524
10
-54.811045367699016
20
102.55459383096907
42
0.41421356237309503
10
-54.311045367699016
20
102.05459382889231
10
-41.311045367699009
20
102.05459382889229
42
0.41421356237309503
10
-40.811045367698917
20
102.55459383096907
10
-40.811045367699002
20
115.55459388496524
42
0.41421356237309503
10
-41.311045367699009
20
116.05459388704202
0
LWPOLYLINE
5
125
100
AcDbEntity
8
0
100
AcDbPolyline
90
8
70
1
43
0.0
10
-73.36104536769902
20
116.05459388704202
42
0.41421356237309503
10
-73.86104536769902
20
115.55459388496524
10
-73.86104536769902
20
102.55459383096907
42
0.41421356237309503
10
-73.36104536769902
20
102.05459382889231
10
-60.361045367699013
20
102.05459382889229
42
0.41421356237309503
10
-59.861045367699013
20
102.55459383096907
10
-59.861045367699013
20
115.55459388496524
42
0.41421356237309503
10
-60.361045367699013
20
116.05459388704202
0
LWPOLYLINE
5
126
100
AcDbEntity
8
0
100
AcDbPolyline
90
8
70
1
43
0.0
10
69.51395463230098
20
97.004593807916834
42
0.41421356237309503
10
69.013954632300994
20
96.504593805840074
10
69.01395463230098
20
83.504593751843998
42
0.41421356237309503
10
69.51395463230098
20
83.004593749767182
10
82.51395463230098
20
83.004593749767224
42
0.41421356237309503
10
83.013954632301079
20
83.504593751843998
10
83.013954632300994
20
96.504593805840074
42
0.41421356237309503
10
82.51395463230098
20
97.004593807916862
0
LWPOLYLINE
5
127
100
AcDbEntity
8
0
100
AcDbPolyline
90
14
70
1
43
0.0
10
153.95145463230099
20
83.004593749767182
10
146.22070463230099
20
83.004593749767182
10
146.22070463437777
20
81.504593743536873
42
-0.41421356237309503
10
145.72070463230096
20
81.004593741460098
10
139.72070463230099
20
81.004593743536873
42
-0.41421356237309503
10
139.22070463230096
20
81.504593743536873
10
139.22070463022419
20
95.504593801686539
42
-0.41421356237309503
10
139.72070463230099
20
96.004593803763328
10
140.45145463230097
20
96.004593803763356
10
140.45145463022422
20
96.504593805840074
42
-0.41421356237309503
10
140.95145463230099
20
97.004593807916834
10
153.95145463230099
20
97.004593805840074
42
-0.41421356237309503
10
154.45145463230099
20
96.504593805840074
10
154.4514546343778
20
83.504593751843998
42
-0.41421356237309503
0
LWPOLYLINE
5
128
100
AcDbEntity
8
0
100
AcDbPolyline
90
8
70
1
43
0.0
10
88.563954632300991
20
97.004593807916834
42
0.41421356237309503
10
88.063954632301005
20
96.504593805840074
10
88.063954632300977
20
83.504593751843998
42
0.41421356237309503
10
88.563954632300991
20
83.004593749767182
10
101.56395463230099
20
83.004593749767224
42
0.41421356237309503
10
102.06395463230101
20
83.504593751843998
10
102.06395463230101
20
96.504593805840074
42
0.41421356237309503
10
101.56395463230099
20
97.004593807916862
0
LWPOLYLINE
5
129
100
AcDbEntity
8
0
100
AcDbPolyline
90
14
70
1
43
0.0
10
114.75770463230099
20
97.004593807916834
42
0.41421356237309503
10
114.257704632301
20
96.504593805840074
10
114.25770463230097
20
83.504593751843998
42
0.41421356237309503
10
114.75770463230099
20
83.004593749767182
10
115.34470463230099
20
83.004593749767182
10
115.34470463230099
20
81.504593743536873
42
0.41421356237309503
10
115.84470463230099
20
81.004593741460056
10
121.84470463230099
20
81.004593741460098
42
0.41421356237309503
10
122.34470463230099
20
81.504593743536873
10
122.34470463230099
20
83.004593749767182
10
137.28270463230101
20
83.004593749767224
42
0.41421356237309503
10
137.78270463230098
20
83.504593751843998
10
137.78270463230101
20
96.504593805840074
42
0.41421356237309503
10
137.28270463230101
20
97.004593807916862
0
LWPOLYLINE
5
130
100
AcDbEntity
8
0
100
AcDbPolyline
90
8
70
1
43
0.0
10
125.87645463230101
20
134.60459396409038
42
0.41421356237309503
10
125.37645463230099
20
135.10459396616719
10
112.37645463230101
20
135.10459396616716
42
0.41421356237309503
10
111.87645463230099
20
134.60459396409038
10
111.87645463230099
20
121.60459391009424
42
0.41421356237309503
10
112.37645463230101
20
121.10459390801743
10
125.37645463230099
20
121.10459390801748
42
0.41421356237309503
10
125.87645463230101
20
121.60459391009424
0
LWPOLYLINE
5
131
100
AcDbEntity
8
0
100
AcDbPolyline
90
8
70
1
43
0.0
10
-40.048545367699013
20
64.954593674795561
42
0.41421356237309503
10
-39.548545367699006
20
65.454593676872335
10
-39.548545367699006
20
79.454593735022115
42
0.41421356237309503
10
-40.048545367699013
20
79.954593737098818
10
-46.048545367699006
20
79.95459373709889
42
0.41421356237309503
10
-46.548545367699006
20
79.454593735022115
10
-46.54854536769902
20
65.454593676872335
42
0.41421356237309503
10
-46.048545367699006
20
64.954593674795532
0
LWPOLYLINE
5
132
100
AcDbEntity
8
0
100
AcDbPolyline
90
8
70
1
43
0.0
10
-20.97354536769901
20
135.10459396616716
42
0.41421356237309503
10
-21.47354536769901
20
134.60459396409038
10
-21.473545367699018
20
121.60459391009424
42
0.41421356237309503
10
-20.97354536769901
20
121.10459390801743
10
-7.9735453676989714
20
121.10459390801748
42
0.41421356237309503
10
-7.473545367698982
20
121.60459391009424
10
-7.4735453676989643
20
134.60459396409038
42
0.41421356237309503
10
-7.9735453676989714
20
135.10459396616722
0
LWPOLYLINE
5
133
100
AcDbEntity
8
0
100
AcDbPolyline
90
8
70
1
43
0.0
10
88.563954632300991
20
77.954593728791764
42
0.41421356237309503
10
88.063954632301005
20
77.45459372671499
10
88.063954632300977
20
64.454593672718829
42
0.41421356237309503
10
88.563954632300991
20
63.954593670642019
10
101.56395463230099
20
63.954593670642055
42
0.41421356237309503
10
102.06395463230101
20
64.454593672718829
10
102.06395463230101
20
77.45459372671499
42
0.41421356237309503
10
101.56395463230099
20
77.954593728791792
0
LWPOLYLINE
5
134
100
AcDbEntity
8
0
100
AcDbPolyline
90
8
70
1
43
0.0
10
35.676454632300995
20
121.60459391009424
10
35.676454630224214
20
134.60459396409038
42
-0.41421356237309503
10
36.176454632300995
20
135.10459396616716
10
49.176454632301002
20
135.10459396409038
42
-0.41421356237309503
10
49.676454632301002
20
134.60459396409038
10
49.676454634377762
20
121.60459391009424
42
-0.41421356237309503
10
49.176454632301002
20
121.10459390801748
10
36.176454632300995
20
121.10459391009422
42
-0.41421356237309503
0
LWPOLYLINE
5
135
100
AcDbEntity
8
0
100
AcDbPolyline
90
8
70
1
43
0.0
10
-97.173545367699035
20
135.10459396616716
42
0.41421356237309503
10
-97.67354536769902
20
134.60459396409038
10
-97.67354536769902
20
121.60459391009424
42
0.41421356237309503
10
-97.173545367699035
20
121.10459390801743
10
-84.173545367698921
20
121.10459390801748
42
0.41421356237309503
10
-83.67354536769902
20
121.60459391009424
10
-83.673545367698935
20
134.60459396409038
42
0.41421356237309503
10
-84.173545367698921
20
135.10459396616722
0
LWPOLYLINE
5
136
100
AcDbEntity
8
0
100
AcDbPolyline
90
8
70
1
43
0.0
10
-1.9235453676989702
20
135.10459396616716
42
0.41421356237309503
10
-2.423545367698968
20
134.60459396409038
10
-2.4235453676989778
20
121.60459391009424
42
0.41421356237309503
10
-1.9235453676989711
20
121.10459390801743
10
11.07645463230099
20
121.10459390801748
42
0.41421356237309503
10
11.576454632300987
20
121.60459391009424
10
11.576454632300997
20
134.60459396409038
42
0.41421356237309503
10
11.07645463230099
20
135.10459396616722
0
LWPOLYLINE
5
137
100
AcDbEntity
8
0
100
AcDbPolyline
90
8
70
1
43
0.0
10
74.276454632301096
20
135.10459396616716
42
0.41421356237309503
10
73.776454632301096
20
134.60459396409038
10
73.776454632301082
20
121.60459391009424
42
0.41421356237309503
10
74.276454632301096
20
121.10459390801743
10
87.276454632301068
20
121.10459390801748
42
0.41421356237309503
10
87.776454632301082
20
121.60459391009424
10
87.776454632301082
20
134.60459396409038
42
0.41421356237309503
10
87.276454632301068
20
135.10459396616722
0
LWPOLYLINE
5
138
100
AcDbEntity
8
0
100
AcDbPolyline
90
8
70
1
43
0.0
10
17.12645463230109
20
135.10459396616716
42
0.41421356237309503
10
16.626454632301094
20
134.60459396409038
10
16.626454632301083
20
121.60459391009424
42
0.41421356237309503
10
17.12645463230109
20
121.10459390801743
10
30.126454632300998
20
121.10459390801748
42
0.41421356237309503
10
30.626454632300995
20
121.60459391009424
10
30.626454632301005
20
134.60459396409038
42
0.41421356237309503
10
30.126454632300998
20
135.10459396616722
0
LWPOLYLINE
5
139
100
AcDbEntity
8
0
100
AcDbPolyline
90
20
70
1
43
0.0
10
121.40145463230098
20
140.65459398921942
10
121.40145463022422
20
153.65459404321558
42
-0.41421356237309503
10
121.90145463230098
20
154.15459404529236
10
153.95145463230099
20
154.15459404321558
42
-0.41421356237309503
10
154.45145463230099
20
153.65459404321558
10
154.45145463437777
20
140.65459398921942
42
-0.41421356237309503
10
153.95145463230099
20
140.15459398714262
10
153.36445463230098
20
140.15459398714259
10
153.36445463437778
20
138.6545939809123
42
-0.41421356237309503
10
152.864454632301
20
138.15459397883552
10
146.86445463230098
20
138.1545939809123
42
-0.41421356237309503
10
146.36445463230098
20
138.6545939809123
10
146.364454632301
20
140.15459398714259
10
129.48845463230097
20
140.15459398714259
10
129.48845463437777
20
138.6545939809123
42
-0.41421356237309503
10
128.988454632301
20
138.15459397883552
10
122.988454632301
20
138.1545939809123
42
-0.41421356237309503
10
122.48845463230099
20
138.6545939809123
10
122.48845463230099
20
140.15459398714259
10
121.90145463230098
20
140.15459398921939
42
-0.41421356237309503
0
LWPOLYLINE
5
140
100
AcDbEntity
8
0
100
AcDbPolyline
90
8
70
1
43
0.0
10
93.326454632301079
20
135.10459396616716
42
0.41421356237309503
10
92.826454632301093
20
134.60459396409038
10
92.826454632301079
20
121.60459391009424
42
0.41421356237309503
10
93.326454632301079
20
121.10459390801743
10
106.32645463230098
20
121.10459390801748
42
0.41421356237309503
10
106.82645463230099
20
121.60459391009424
10
106.82645463230099
20
134.60459396409038
42
0.41421356237309503
10
106.32645463230098
20
135.10459396616722
0
LWPOLYLINE
5
141
100
AcDbEntity
8
0
100
AcDbPolyline
90
8
70
1
43
0.0
10
-59.073545367699012
20
135.10459396616716
42
0.41421356237309503
10
-59.573545367699012
20
134.60459396409038
10
-59.573545367699012
20
121.60459391009424
42
0.41421356237309503
10
-59.073545367699012
20
121.10459390801743
10
-46.073545367699005
20
121.10459390801748
42
0.41421356237309503
10
-45.573545367698912
20
121.60459391009424
10
-45.573545367698998
20
134.60459396409038
42
0.41421356237309503
10
-46.073545367699005
20
135.10459396616722
0
LWPOLYLINE
5
142
100
AcDbEntity
8
0
100
AcDbPolyline
90
8
70
1
43
0.0
10
55.226454632301092
20
135.10459396616716
42
0.41421356237309503
10
54.726454632301092
20
134.60459396409038
10
54.726454632301085
20
121.60459391009424
42
0.41421356237309503
10
55.226454632301092
20
121.10459390801743
10
68.226454632301085
20
121.10459390801748
42
0.41421356237309503
10
68.726454632301099
20
121.60459391009424
10
68.726454632301099
20
134.60459396409038
42
0.41421356237309503
10
68.226454632301085
20
135.10459396616722
0
LWPOLYLINE
5
143
100
AcDbEntity
8
0
100
AcDbPolyline
90
8
70
1
43
0.0
10
-121.48604536769903
20
121.60459391009424
10
-121.48604536977581
20
134.60459396409038
42
-0.41421356237309503
10
-120.98604536769903
20
135.10459396616716
10
-107.98604536769902
20
135.10459396409038
42
-0.41421356237309503
10
-107.48604536769903
20
134.60459396409038
10
-107.48604536562226
20
121.60459391009424
42
-0.41421356237309503
10
-107.98604536769902
20
121.10459390801748
10
-120.98604536769903
20
121.10459391009422
42
-0.41421356237309503
0
LWPOLYLINE
5
144
100
AcDbEntity
8
0
100
AcDbPolyline
90
8
70
1
43
0.0
10
-40.023545367699008
20
135.10459396616716
42
0.41421356237309503
10
-40.523545367699008
20
134.60459396409038
10
-40.523545367699015
20
121.60459391009424
42
0.41421356237309503
10
-40.023545367699008
20
121.10459390801743
10
-27.023545367699011
20
121.10459390801748
42
0.41421356237309503
10
-26.523545367699015
20
121.60459391009424
10
-26.523545367699004
20
134.60459396409038
42
0.41421356237309503
10
-27.023545367699011
20
135.10459396616722
0
LWPOLYLINE
5
145
100
AcDbEntity
8
0
100
AcDbPolyline
90
8
70
1
43
0.0
10
-78.123545367699009
20
135.10459396616716
42
0.41421356237309503
10
-78.623545367699009
20
134.60459396409038
10
-78.623545367699009
20
121.60459391009424
42
0.41421356237309503
10
-78.123545367699009
20
121.10459390801743
10
-65.123545367699009
20
121.10459390801748
42
0.41421356237309503
10
-64.623545367699009
20
121.60459391009424
10
-64.623545367699009
20
134.60459396409038
42
0.41421356237309503
10
-65.123545367699009
20
135.10459396616722
0
LWPOLYLINE
5
146
100
AcDbEntity
8
0
100
AcDbPolyline
90
8
70
1
43
0.0
10
7.6014546323010386
20
154.15459404529236
42
0.41421356237309503
10
7.1014546323010386
20
153.65459404321558
10
7.1014546323010315
20
140.65459398921942
42
0.41421356237309503
10
7.6014546323010386
20
140.15459398714259
10
20.601454632300992
20
140.15459398714262
42
0.41421356237309503
10
21.101454632300992
20
140.65459398921942
10
21.101454632300999
20
153.65459404321558
42
0.41421356237309503
10
20.601454632300992
20
154.15459404529227
0
LWPOLYLINE
5
147
100
AcDbEntity
8
0
100
AcDbPolyline
90
8
70
1
43
0.0
10
45.701454632301093
20
154.15459404529236
42
0.41421356237309503
10
45.201454632301093
20
153.65459404321558
10
45.201454632301086
20
140.65459398921942
42
0.41421356237309503
10
45.701454632301093
20
140.15459398714259
10
58.701454632300994
20
140.15459398714262
42
0.41421356237309503
10
59.201454632300994
20
140.65459398921942
10
59.201454632301001
20
153.65459404321558
42
0.41421356237309503
10
58.701454632300994
20
154.15459404529227
0
LWPOLYLINE
5
148
100
AcDbEntity
8
0
100
AcDbPolyline
90
8
70
1
43
0.0
10
102.851454632301
20
154.15459404529236
42
0.41421356237309503
10
102.35145463230099
20
153.65459404321558
10
102.35145463230099
20
140.65459398921942
42
0.41421356237309503
10
102.851454632301
20
140.15459398714259
10
115.85145463230099
20
140.15459398714262
42
0.41421356237309503
10
116.351454632301
20
140.65459398921942
10
116.351454632301
20
153.65459404321558
42
0.41421356237309503
10
115.85145463230099
20
154.15459404529227
0
LWPOLYLINE
5
149
100
AcDbEntity
8
0
100
AcDbPolyline
90
8
70
1
43
0.0
10
64.75145463230109
20
154.15459404529236
42
0.41421356237309503
10
64.251454632301105
20
153.65459404321558
10
64.25145463230109
20
140.65459398921942
42
0.41421356237309503
10
64.75145463230109
20
140.15459398714259
10
77.75145463230109
20
140.15459398714262
42
0.41421356237309503
10
78.251454632301105
20
140.65459398921942
10
78.251454632301105
20
153.65459404321558
42
0.41421356237309503
10
77.75145463230109
20
154.15459404529227
0
LWPOLYLINE
5
150
100
AcDbEntity
8
0
100
AcDbPolyline
90
8
70
1
43
0.0
10
26.651454632301093
20
154.15459404529236
42
0.41421356237309503
10
26.151454632301096
20
153.65459404321558
10
26.151454632301085
20
140.65459398921942
42
0.41421356237309503
10
26.651454632301093
20
140.15459398714259
10
39.65145463230099
20
140.15459398714262
42
0.41421356237309503
10
40.151454632301096
20
140.65459398921942
10
40.15145463230099
20
153.65459404321558
42
0.41421356237309503
10
39.65145463230099
20
154.15459404529227
0
LWPOLYLINE
5
151
100
AcDbEntity
8
0
100
AcDbPolyline
90
8
70
1
43
0.0
10
83.301454632300988
20
140.65459398921942
10
83.301454630224214
20
153.65459404321558
42
-0.41421356237309503
10
83.801454632300988
20
154.15459404529236
10
96.801454632300988
20
154.15459404321558
42
-0.41421356237309503
10
97.301454632301002
20
153.65459404321558
10
97.301454634377777
20
140.65459398921942
42
-0.41421356237309503
10
96.801454632300988
20
140.15459398714262
10
83.801454632300988
20
140.15459398921942
42
-0.41421356237309503
0
LWPOLYLINE
5
152
100
AcDbEntity
8
0
100
AcDbPolyline
90
8
70
1
43
0.0
10
-68.598545367699018
20
154.15459404529236
42
0.41421356237309503
10
-69.098545367699018
20
153.65459404321558
10
-69.098545367699018
20
140.65459398921942
42
0.41421356237309503
10
-68.598545367699018
20
140.15459398714259
10
-55.598545367699018
20
140.15459398714262
42
0.41421356237309503
10
-55.09854536769901
20
140.65459398921942
10
-55.098545367699018
20
153.65459404321558
42
0.41421356237309503
10
-55.598545367699018
20
154.15459404529227
0
LWPOLYLINE
5
153
100
AcDbEntity
8
0
100
AcDbPolyline
90
8
70
1
43
0.0
10
-87.648545367699029
20
154.15459404529236
42
0.41421356237309503
10
-88.148545367699029
20
153.65459404321558
10
-88.148545367699015
20
140.65459398921942
42
0.41421356237309503
10
-87.648545367699029
20
140.15459398714259
10
-74.648545367699015
20
140.15459398714262
42
0.41421356237309503
10
-74.148545367699015
20
140.65459398921942
10
-74.148545367699015
20
153.65459404321558
42
0.41421356237309503
10
-74.648545367699015
20
154.15459404529227
0
LWPOLYLINE
5
154
100
AcDbEntity
8
0
100
AcDbPolyline
90
8
70
1
43
0.0
10
-106.69854536769903
20
154.15459404529236
42
0.41421356237309503
10
-107.19854536769903
20
153.65459404321558
10
-107.19854536769901
20
140.65459398921942
42
0.41421356237309503
10
-106.69854536769903
20
140.15459398714259
10
-93.698545367699012
20
140.15459398714262
42
0.41421356237309503
10
-93.198545367699026
20
140.65459398921942
10
-93.198545367699026
20
153.65459404321558
42
0.41421356237309503
10
-93.698545367699012
20
154.15459404529227
0
LWPOLYLINE
5
155
100
AcDbEntity
8
0
100
AcDbPolyline
90
8
70
1
43
0.0
10
-11.448545367698912
20
154.15459404529236
42
0.41421356237309503
10
-11.948545367698912
20
153.65459404321558
10
-11.94854536769892
20
140.65459398921942
42
0.4142135623730937
10
-11.448545367698914
20
140.15459398714259
10
1.5514546323010101
20
140.15459398714262
42
0.41421356237309503
10
2.0514546323010197
20
140.65459398921942
10
2.051454632301017
20
153.65459404321558
42
0.41421356237309437
10
1.5514546323010103
20
154.15459404529227
0
LWPOLYLINE
5
156
100
AcDbEntity
8
0
100
AcDbPolyline
90
8
70
1
43
0.0
10
-49.548545367699013
20
154.15459404529236
42
0.41421356237309503
10
-50.048545367699013
20
153.65459404321558
10
-50.048545367699013
20
140.65459398921942
42
0.41421356237309503
10
-49.548545367699013
20
140.15459398714259
10
-36.548545367699006
20
140.15459398714262
42
0.41421356237309503
10
-36.048545367699006
20
140.65459398921942
10
-36.048545367698999
20
153.65459404321558
42
0.41421356237309503
10
-36.548545367699006
20
154.15459404529227
0
LWPOLYLINE
5
157
100
AcDbEntity
8
0
100
AcDbPolyline
90
8
70
1
43
0.0
10
-126.24854536769902
20
140.65459398921942
10
-126.24854536977578
20
153.65459404321558
42
-0.41421356237309503
10
-125.74854536769902
20
154.15459404529236
10
-112.74854536769902
20
154.15459404321558
42
-0.41421356237309503
10
-112.24854536769902
20
153.65459404321558
10
-112.24854536562225
20
140.65459398921942
42
-0.41421356237309503
10
-112.74854536769902
20
140.15459398714262
10
-125.74854536769902
20
140.15459398921939
42
-0.41421356237309503
0
LWPOLYLINE
5
158
100
AcDbEntity
8
0
100
AcDbPolyline
90
8
70
1
43
0.0
10
-30.498545367699009
20
154.15459404529236
42
0.41421356237309503
10
-30.998545367699005
20
153.65459404321558
10
-30.998545367699016
20
140.65459398921942
42
0.41421356237309503
10
-30.498545367699009
20
140.15459398714259
10
-17.498545367699009
20
140.15459398714262
42
0.41421356237309503
10
-16.998545367698913
20
140.65459398921942
10
-16.998545367699002
20
153.65459404321558
42
0.41421356237309503
10
-17.498545367699009
20
154.15459404529227
0
LWPOLYLINE
5
159
100
AcDbEntity
8
0
100
AcDbPolyline
90
8
70
1
43
0.0
10
2.8389546323010495
20
116.05459388704202
42
0.41421356237309503
10
2.3389546323010517
20
115.55459388496524
10
2.3389546323010424
20
102.55459383096907
42
0.41421356237309537
10
2.8389546323010495
20
102.05459382889229
10
15.83895463230099
20
102.05459382889229
42
0.41421356237309503
10
16.338954632301089
20
102.55459383096907
10
16.338954632300997
20
115.55459388496524
42
0.41421356237309503
10
15.83895463230099
20
116.05459388704202
0
LWPOLYLINE
5
160
100
AcDbEntity
8
0
100
AcDbPolyline
90
8
70
1
43
0.0
10
40.938954632300991
20
116.05459388704202
42
0.41421356237309503
10
40.438954632300998
20
115.55459388496524
10
40.438954632300991
20
102.55459383096907
42
0.41421356237309503
10
40.938954632300991
20
102.05459382889231
10
53.93895463230109
20
102.05459382889229
42
0.41421356237309503
10
54.43895463230109
20
102.55459383096907
10
54.438954632301098
20
115.55459388496524
42
0.41421356237309503
10
53.93895463230109
20
116.05459388704202
0
CIRCLE
5
161
100
AcDbEntity
8
0
100
AcDbCircle
10
135.37645463230098
20
58.429593647693594
30
-3.0316371256934105e-08
40
1.25
210
-1.119946216535784e-24
220
7.4897032708905237e-12
230
1
0
CIRCLE
5
162
100
AcDbEntity
8
0
100
AcDbCircle
10
-107.17354536769903
20
58.429593647693594
30
-3.0316371256933833e-08
40
1.25
210
-1.119946216535784e-24
220
7.4897032708905237e-12
230
1
0
CIRCLE
5
163
100
AcDbEntity
8
0
100
AcDbCircle
10
71.251454632301005
20
58.42959364769299
30
-3.0316367371153452e-08
40
1.24999999999999
210
-1.119946216343191e-24
220
7.4897032708905237e-12
230
1
0
CIRCLE
5
164
100
AcDbEntity
8
0
100
AcDbCircle
10
-43.048545367699013
20
159.67959406824042
30
-3.0316267832720268e-08
40
1.24999999999999
210
-1.1199462132617031e-24
220
7.4897032708905237e-12
230
1
0
CIRCLE
5
165
100
AcDbEntity
8
0
100
AcDbCircle
10
-43.048545367699013
20
58.42959364769299
30
-3.031636737115332e-08
40
1.24999999999999
210
-1.119946216343191e-24
220
7.4897032708905237e-12
230
1
0
CIRCLE
5
166
100
AcDbEntity
8
0
100
AcDbCircle
10
150.45145463230097
20
159.67959406824053
30
-3.0316277824727702e-08
40
1.25
210
-1.1199465186178945e-24
220
7.4897032708905237e-12
230
1
0
CIRCLE
5
167
100
AcDbEntity
8
0
100
AcDbCircle
10
71.251454632301105
20
159.67959406824053
30
-3.0316277824727616e-08
40
1.24999999999999
210
-1.1199462132617031e-24
220
7.4897032708905237e-12
230
1
0
CIRCLE
5
168
100
AcDbEntity
8
0
100
AcDbCircle
10
-122.24854536769902
20
159.67959406824042
30
-3.0316276714504373e-08
40
1.25
210
-1.119946517558633e-24
220
7.4897032708905237e-12
230
1
0
ENDSEC
0
SECTION
2
OBJECTS
0
DICTIONARY
5
C
100
AcDbDictionary
3
ACAD_GROUP
350
D
3
ACAD_MLINESTYLE
350
17
0
DICTIONARY
5
D
100
AcDbDictionary
0
DICTIONARY
5
1A
330
C
100
AcDbDictionary
0
DICTIONARY
5
17
100
AcDbDictionary
0
ENDSEC
0
EOF
